# File produced by Open Asset Import Library (http://www.assimp.sf.net)
# (assimp v3.1.206520482)

adobe_mdllib Adobe Dimension.mdl

# 30 vertex positions
v 30 2 1
v 30 3 1
v 30 3.1 1.1
v 30 2 1.1
v 30 3 1.19209e-07
v 30 3.1 -0.0999999
v 30 -2 0
v 30 -3 1
v 30 -3 0.8
v 30 -2.1 -0.0999999
v 0 3.1 -0.0999999
v 0 3.1 1.1
v 0 -2 0
v 0 -3 1
v 0 -3 0.8
v 0 -2.1 -0.0999999
v 0 3 1.19209e-07
v 0 2 1.1
v 0 2 1
v 0 3 1
v -30 3.1 1.1
v -30 3 1
v -30 2 1
v -30 2 1.1
v -30 3.1 -0.0999999
v -30 3 1.19209e-07
v -30 -3 0.8
v -30 -3 1
v -30 -2 0
v -30 -2.1 -0.0999999

# 50 UV coordinates
vt 0.692392 0.786653 0
vt 0.692022 0.750903 0
vt 0.70082 0.760513 0
vt 0.671314 0.784267 0
vt 0.702831 0.751162 0
vt 0.677069 0.772069 0
vt 0.722955 0.261625 0
vt 0.714388 0.21697 0
vt 0.68606 0.214018 0
vt 0.691092 0.250026 0
vt 0.923053 0.86327 0
vt 0.845395 0.999763 0
vt 0.523856 0.19062 0
vt 0.659852 0.0680535 0
vt 0.769305 0.000138919 0
vt 0.923053 0.172543 0
vt 0.461721 0.74707 0
vt 0.684047 0.975182 0
vt 0.612846 0.919816 0
vt 0.515897 0.814273 0
vt 0.239136 0.239354 0
vt 0.230351 0.249369 0
vt 0.230752 0.213467 0
vt 0.209678 0.215794 0
vt 0.215459 0.227524 0
vt 0.241214 0.249384 0
vt 0.224258 0.785964 0
vt 0.252577 0.783112 0
vt 0.261202 0.738814 0
vt 0.229372 0.749691 0
vt 0.931317 0.11991 0
vt 0.929417 0.109045 0
vt 0.929417 0.000138919 0
vt 0.931317 0.000166464 0
vt 0.927389 0.120476 0
vt 0.926143 0.109517 0
vt 0.923331 0.100172 0
vt 0.923351 0.100149 0
vt 0.924796 0.101458 0
vt 0.924631 0.10135 0
vt 0.461443 0.13651 0
vt 0.383674 0.000138919 0
vt 0.0622462 0.809646 0
vt 0.198281 0.932041 0
vt 0.30774 0.999861 0
vt 0.461443 0.827315 0
vt 0.000138919 0.253308 0
vt 0.2223 0.0248701 0
vt 0.151116 0.0803381 0
vt 0.0542265 0.186009 0

# 12 vertex normals
vn 1 0 0
vn 1 5.51441e-06 2.41042e-13
vn 0 1 4.37114e-08
vn 0 0.707107 0.707107
vn 0 -0.707107 -0.707107
vn 0 -2.62268e-08 1
vn 0 -1 -4.37114e-08
vn 0 -1 1.74443e-06
vn 0 4.09543e-08 1
vn 0 4.37114e-08 -1
vn 0 1.17502e-09 -1
vn -1 0 0

# Mesh '01 Deckel_01 Deckel' with 64 faces
g 01 Deckel_01 Deckel
usemtl MATERIAL_SCHUBLADE
f 1/1/1 2/2/1 3/3/1
f 3/3/1 4/4/1 1/1/1
f 5/5/1 6/6/1 3/3/1
f 3/3/1 2/2/1 5/5/1
f 7/7/2 8/8/2 9/9/2
f 9/9/2 10/10/2 7/7/2
f 5/5/1 7/7/1 10/10/1
f 10/10/1 6/6/1 5/5/1
f 3/3/3 6/6/3 11/11/3
f 11/11/3 12/12/3 3/3/3
f 8/8/4 7/7/4 13/13/4
f 13/13/4 14/14/4 8/8/4
f 10/10/5 9/9/5 15/15/5
f 15/15/5 16/16/5 10/10/5
f 7/7/6 5/5/6 17/17/6
f 17/17/6 13/13/6 7/7/6
f 1/1/7 4/4/7 18/18/7
f 18/18/7 19/19/7 1/1/7
f 9/9/8 8/8/8 14/14/8
f 14/14/8 15/15/8 9/9/8
f 5/5/7 2/2/7 20/20/7
f 20/20/7 17/17/7 5/5/7
f 4/4/9 3/3/9 12/12/9
f 12/12/9 18/18/9 4/4/9
f 2/2/10 1/1/10 19/19/10
f 19/19/10 20/20/10 2/2/10
f 6/6/11 10/10/11 16/16/11
f 16/16/11 11/11/11 6/6/11
f 21/21/12 22/22/12 23/23/12
f 23/23/12 24/24/12 21/21/12
f 21/21/12 25/25/12 26/26/12
f 26/26/12 22/22/12 21/21/12
f 27/27/12 28/28/12 29/29/12
f 29/29/12 30/30/12 27/27/12
f 30/30/12 29/29/12 26/26/12
f 26/26/12 25/25/12 30/30/12
f 12/31/12 20/32/12 19/33/12
f 19/33/12 18/34/12 12/31/12
f 12/31/12 11/35/12 17/36/12
f 17/36/12 20/32/12 12/31/12
f 15/37/12 14/38/12 13/39/12
f 13/39/12 16/40/12 15/37/12
f 16/40/12 13/39/12 17/36/12
f 17/36/12 11/35/12 16/40/12
f 11/41/3 25/25/3 21/21/3
f 21/21/3 12/42/3 11/41/3
f 13/43/4 29/29/4 28/28/4
f 28/28/4 14/44/4 13/43/4
f 15/45/5 27/27/5 30/30/5
f 30/30/5 16/46/5 15/45/5
f 17/47/6 26/26/6 29/29/6
f 29/29/6 13/43/6 17/47/6
f 18/48/7 24/24/7 23/23/7
f 23/23/7 19/49/7 18/48/7
f 14/44/8 28/28/8 27/27/8
f 27/27/8 15/45/8 14/44/8
f 20/50/7 22/22/7 26/26/7
f 26/26/7 17/47/7 20/50/7
f 12/42/9 21/21/9 24/24/9
f 24/24/9 18/48/9 12/42/9
f 19/49/10 23/23/10 22/22/10
f 22/22/10 20/50/10 19/49/10
f 16/46/11 30/30/11 25/25/11
f 25/25/11 11/41/11 16/46/11

