# File produced by Open Asset Import Library (http://www.assimp.sf.net)
# (assimp v3.1.206520482)

adobe_mdllib Adobe Dimension.mdl

# 38 vertex positions
v 29 2.9 -58.1
v 29 -2.00001 -58.1
v 28.5 -2.00001 -58.1
v 28.5 2.9 -58.1
v -29 2.9 -29.1
v -29 -2 -29.1
v -29 -2 -0.0999985
v -29 2.9 -0.0999985
v 29 2.9 -29.1
v 29 -2 -29.1
v 29 -2 -57.6
v 29 2.9 -57.6
v -28.5 2.9 -57.6
v -28.5 -2 -57.6
v 0 -2 -57.6
v 0 2.9 -57.6
v 29 2.9 -0.0999985
v 29 -2 -0.0999985
v 0 -2 -29.1
v 0 -2 -0.0999985
v 28.5 -2 -0.0999985
v 28.5 -2 -29.1
v -28.5 -2 -29.1
v -28.5 -2 -0.0999985
v 28.5 -2 -57.6
v 28.5 2.9 -57.6
v -29 2.9 -57.6
v -29 -2 -57.6
v 0 -2.00001 -58.1
v 0 2.9 -58.1
v -28.5 2.9 -58.1
v -29 2.9 -58.1
v -28.5 2.9 -0.0999985
v -28.5 2.9 -29.1
v 28.5 2.9 -29.1
v 28.5 2.9 -0.0999985
v -28.5 -2.00001 -58.1
v -29 -2.00001 -58.1

# 38 UV coordinates
vt 0.0230471 0.777272 0
vt 0.0102097 0.788223 0
vt 0.00537313 0.780648 0
vt 0.0230433 0.771869 0
vt 0.479386 0.0206727 0
vt 0.477499 0.00194536 0
vt 0.873013 9.36852e-05 0
vt 0.810467 0.0184836 0
vt 0.403444 0.910721 0
vt 0.397989 0.930823 0
vt 0.0154224 0.793558 0
vt 0.0282437 0.779337 0
vt 0.127293 0.0986414 0
vt 0.140769 0.113539 0
vt 0.0413779 0.434217 0
vt 0.0230892 0.432425 0
vt 0.707626 0.974041 0
vt 0.768045 0.999906 0
vt 0.456456 0.476754 0
vt 0.877949 0.522723 0
vt 0.771646 0.964236 0
vt 0.409648 0.887681 0
vt 0.482318 0.0505008 0
vt 0.877949 0.0375141 0
vt 0.0463207 0.759063 0
vt 0.0294962 0.772634 0
vt 0.126873 0.0919932 0
vt 0.117245 0.0769582 0
vt 9.36852e-05 0.428934 0
vt 0.0176301 0.431527 0
vt 0.120739 0.0974115 0
vt 0.122421 0.0930222 0
vt 0.810107 0.0246044 0
vt 0.479997 0.0277985 0
vt 0.405161 0.90425 0
vt 0.709193 0.968486 0
vt 0.106968 0.0873648 0
vt 0.11107 0.0822879 0

# 5 vertex normals
vn 0 -1.62921e-07 -1
vn -1 0 -0
vn 1 0 0
vn 0 1.62921e-07 1
vn 0 1 -1.62921e-07

# Mesh '01 Schublade 580x580mm_01 Schublade 580x580mm' with 60 faces
g 01 Schublade 580x580mm_01 Schublade 580x580mm
usemtl MATERIAL_DEFAULTMATERIAL
f 1/1/1 2/2/1 3/3/1
f 3/3/1 4/4/1 1/1/1
f 5/5/2 6/6/2 7/7/2
f 7/7/2 8/8/2 5/5/2
f 9/9/3 10/10/3 11/11/3
f 11/11/3 12/12/3 9/9/3
f 13/13/4 14/14/4 15/15/4
f 15/15/4 16/16/4 13/13/4
f 17/17/3 18/18/3 10/10/3
f 10/10/3 9/9/3 17/17/3
f 19/19/5 20/20/5 21/21/5
f 21/21/5 22/22/5 19/19/5
f 23/23/5 24/24/5 20/20/5
f 20/20/5 19/19/5 23/23/5
f 16/16/4 15/15/4 25/25/4
f 25/25/4 26/26/4 16/16/4
f 27/27/2 28/28/2 6/6/2
f 6/6/2 5/5/2 27/27/2
f 15/15/5 19/19/5 22/22/5
f 22/22/5 25/25/5 15/15/5
f 14/14/5 23/23/5 19/19/5
f 19/19/5 15/15/5 14/14/5
f 4/4/1 3/3/1 29/29/1
f 29/29/1 30/30/1 4/4/1
f 4/4/5 26/26/5 12/12/5
f 12/12/5 1/1/5 4/4/5
f 31/31/5 13/13/5 16/16/5
f 16/16/5 30/30/5 31/31/5
f 30/30/5 16/16/5 26/26/5
f 26/26/5 4/4/5 30/30/5
f 32/32/5 27/27/5 13/13/5
f 13/13/5 31/31/5 32/32/5
f 5/5/5 8/8/5 33/33/5
f 33/33/5 34/34/5 5/5/5
f 35/35/5 36/36/5 17/17/5
f 17/17/5 9/9/5 35/35/5
f 27/27/5 5/5/5 34/34/5
f 34/34/5 13/13/5 27/27/5
f 26/26/5 35/35/5 9/9/5
f 9/9/5 12/12/5 26/26/5
f 36/36/4 21/21/4 18/18/4
f 18/18/4 17/17/4 36/36/4
f 35/35/2 22/22/2 21/21/2
f 21/21/2 36/36/2 35/35/2
f 26/26/2 25/25/2 22/22/2
f 22/22/2 35/35/2 26/26/2
f 12/12/3 11/11/3 2/2/3
f 2/2/3 1/1/3 12/12/3
f 33/33/3 24/24/3 23/23/3
f 23/23/3 34/34/3 33/33/3
f 30/30/1 29/29/1 37/37/1
f 37/37/1 31/31/1 30/30/1
f 34/34/3 23/23/3 14/14/3
f 14/14/3 13/13/3 34/34/3
f 31/31/1 37/37/1 38/38/1
f 38/38/1 32/32/1 31/31/1
f 8/8/4 7/7/4 24/24/4
f 24/24/4 33/33/4 8/8/4
f 32/32/2 38/38/2 28/28/2
f 28/28/2 27/27/2 32/32/2

