# File produced by Open Asset Import Library (http://www.assimp.sf.net)
# (assimp v3.1.206520482)

adobe_mdllib Adobe Dimension.mdl

# 38 vertex positions
v 29 -39.1 -58.1
v 29 -51.5 -58.1
v 28.5 -51.5 -58.1
v 28.5 -39.1 -58.1
v -29 -39.1 -29.1
v -29 -51.5 -29.1
v -29 -51.5 -0.0999966
v -29 -39.1 -0.0999985
v 29 -39.1 -29.1
v 29 -51.5 -29.1
v 29 -51.5 -57.6
v 29 -39.1 -57.6
v -28.5 -39.1 -57.6
v -28.5 -51.5 -57.6
v 0 -51.5 -57.6
v 0 -39.1 -57.6
v 29 -39.1 -0.0999985
v 29 -51.5 -0.0999966
v 0 -51.5 -29.1
v 0 -51.5 -0.0999966
v 28.5 -51.5 -0.0999966
v 28.5 -51.5 -29.1
v -28.5 -51.5 -29.1
v -28.5 -51.5 -0.0999966
v 28.5 -51.5 -57.6
v 28.5 -39.1 -57.6
v -29 -39.1 -57.6
v -29 -51.5 -57.6
v 0 -51.5 -58.1
v 0 -39.1 -58.1
v -28.5 -39.1 -58.1
v -29 -39.1 -58.1
v -28.5 -39.1 -0.0999985
v -28.5 -39.1 -29.1
v 28.5 -39.1 -29.1
v 28.5 -39.1 -0.0999985
v -28.5 -51.5 -58.1
v -29 -51.5 -58.1

# 38 UV coordinates
vt 0.816411 0.278691 0
vt 0.847651 0.257537 0
vt 0.851629 0.263967 0
vt 0.816117 0.283723 0
vt 0.424911 0.949116 0
vt 0.430369 0.993187 0
vt 0.0122824 0.999908 0
vt 0.201945 0.956273 0
vt 0.513393 0.128962 0
vt 0.528732 0.0909501 0
vt 0.844242 0.252645 0
vt 0.811848 0.276525 0
vt 0.71242 0.865415 0
vt 0.683811 0.836726 0
vt 0.767932 0.574022 0
vt 0.807249 0.579173 0
vt 0.316556 0.066101 0
vt 0.114726 9.22702e-05 0
vt 0.418623 0.529255 0
vt 9.22702e-05 0.487965 0
vt 0.107128 0.0446344 0
vt 0.496005 0.171383 0
vt 0.416596 0.90061 0
vt 0.00481511 0.958001 0
vt 0.774985 0.307208 0
vt 0.810317 0.28251 0
vt 0.712952 0.871261 0
vt 0.7367 0.898546 0
vt 0.851629 0.586838 0
vt 0.811968 0.580053 0
vt 0.718255 0.866225 0
vt 0.716891 0.870136 0
vt 0.201736 0.952184 0
vt 0.424131 0.943858 0
vt 0.51156 0.133463 0
vt 0.31546 0.0697145 0
vt 0.745126 0.889993 0
vt 0.74154 0.893842 0

# 5 vertex normals
vn 0 -1.62921e-07 -1
vn -1 0 -0
vn 1 0 0
vn 0 1.62921e-07 1
vn 0 1 -1.62921e-07

# Mesh '07 Schublade 580x580mm_07 Schublade 580x580mm' with 60 faces
g 07 Schublade 580x580mm_07 Schublade 580x580mm
usemtl MATERIAL_DEFAULTMATERIAL
f 1/1/1 2/2/1 3/3/1
f 3/3/1 4/4/1 1/1/1
f 5/5/2 6/6/2 7/7/2
f 7/7/2 8/8/2 5/5/2
f 9/9/3 10/10/3 11/11/3
f 11/11/3 12/12/3 9/9/3
f 13/13/4 14/14/4 15/15/4
f 15/15/4 16/16/4 13/13/4
f 17/17/3 18/18/3 10/10/3
f 10/10/3 9/9/3 17/17/3
f 19/19/5 20/20/5 21/21/5
f 21/21/5 22/22/5 19/19/5
f 23/23/5 24/24/5 20/20/5
f 20/20/5 19/19/5 23/23/5
f 16/16/4 15/15/4 25/25/4
f 25/25/4 26/26/4 16/16/4
f 27/27/2 28/28/2 6/6/2
f 6/6/2 5/5/2 27/27/2
f 15/15/5 19/19/5 22/22/5
f 22/22/5 25/25/5 15/15/5
f 14/14/5 23/23/5 19/19/5
f 19/19/5 15/15/5 14/14/5
f 4/4/1 3/3/1 29/29/1
f 29/29/1 30/30/1 4/4/1
f 4/4/5 26/26/5 12/12/5
f 12/12/5 1/1/5 4/4/5
f 31/31/5 13/13/5 16/16/5
f 16/16/5 30/30/5 31/31/5
f 30/30/5 16/16/5 26/26/5
f 26/26/5 4/4/5 30/30/5
f 32/32/5 27/27/5 13/13/5
f 13/13/5 31/31/5 32/32/5
f 5/5/5 8/8/5 33/33/5
f 33/33/5 34/34/5 5/5/5
f 35/35/5 36/36/5 17/17/5
f 17/17/5 9/9/5 35/35/5
f 27/27/5 5/5/5 34/34/5
f 34/34/5 13/13/5 27/27/5
f 26/26/5 35/35/5 9/9/5
f 9/9/5 12/12/5 26/26/5
f 36/36/4 21/21/4 18/18/4
f 18/18/4 17/17/4 36/36/4
f 35/35/2 22/22/2 21/21/2
f 21/21/2 36/36/2 35/35/2
f 26/26/2 25/25/2 22/22/2
f 22/22/2 35/35/2 26/26/2
f 12/12/3 11/11/3 2/2/3
f 2/2/3 1/1/3 12/12/3
f 33/33/3 24/24/3 23/23/3
f 23/23/3 34/34/3 33/33/3
f 30/30/1 29/29/1 37/37/1
f 37/37/1 31/31/1 30/30/1
f 34/34/3 23/23/3 14/14/3
f 14/14/3 13/13/3 34/34/3
f 31/31/1 37/37/1 38/38/1
f 38/38/1 32/32/1 31/31/1
f 8/8/4 7/7/4 24/24/4
f 24/24/4 33/33/4 8/8/4
f 32/32/2 38/38/2 28/28/2
f 28/28/2 27/27/2 32/32/2

